<?xml version="1.0" encoding="utf-8"?>
<!-- Generator: Adobe Illustrator 19.0.0, SVG Export Plug-In . SVG Version: 6.00 Build 0)  -->
<svg version="1.1" id="layer" xmlns="http://www.w3.org/2000/svg" xmlns:xlink="http://www.w3.org/1999/xlink" x="0px" y="0px"
	 viewBox="-153 -46 652 652" style="enable-background:new -153 -46 652 652;" xml:space="preserve">
<style type="text/css">
	.st0{fill:#464646;}
	.st1{fill:#82BEA0;}
	.st2{fill:#FA6441;}
</style>
<path class="st0" d="M-132.6,484.7c6.5,0,11.9-1.1,16.1-3.2c4.2-2.1,6.4-5.8,6.4-10.9c0-2.4-0.4-4.5-1.1-6.3c-0.8-1.7-2-3.3-3.7-4.7
	c-1.7-1.4-4-2.7-6.9-4c-2.8-1.3-6.4-2.8-10.5-4.5c-3.4-1.4-6.6-2.8-9.6-4.3c-3-1.4-5.7-3.1-8-5c-2.3-1.9-4.2-4.2-5.6-6.9
	c-1.4-2.7-2.1-5.9-2.1-9.8c0-7.3,2.8-13.2,8.3-17.8c5.5-4.5,13.1-6.8,22.7-6.8c6.1,0,11.2,0.5,15.2,1.6c4,1,6.8,2,8.4,2.8l-2.6,10.1
	c-1.4-0.7-3.7-1.6-7.1-2.8c-3.3-1.2-8.2-1.7-14.5-1.7c-2.6,0-5,0.3-7.2,0.8c-2.3,0.5-4.3,1.3-6,2.4c-1.7,1.1-3.1,2.5-4.2,4.2
	c-1,1.7-1.6,3.7-1.6,6.2c0,2.4,0.5,4.5,1.4,6.3c0.9,1.7,2.3,3.3,4.1,4.6c1.8,1.3,4,2.6,6.6,3.7c2.6,1.2,5.6,2.4,9,3.8
	c3.5,1.4,6.8,2.8,10,4.2c3.2,1.4,6,3.2,8.4,5.2c2.4,2,4.4,4.5,5.9,7.3c1.5,2.8,2.3,6.4,2.3,10.7c0,8.1-3.1,14.3-9.1,18.5
	c-6.1,4.2-14.4,6.3-25,6.3c-7.9,0-13.9-0.7-18.1-2c-4.2-1.3-7-2.4-8.4-3.1l3-10.3c0.3,0.2,1.1,0.6,2.3,1.1c1.2,0.5,2.7,1.1,4.7,1.7
	c2,0.6,4.3,1.2,7.1,1.7C-139.3,484.4-136.2,484.7-132.6,484.7z M-82.9,405.8c3.4-0.9,7.9-2,13.6-3.1c5.7-1.2,12.7-1.7,20.9-1.7
	c6.8,0,12.6,1,17.2,3c4.6,2,8.2,4.8,11,8.4c2.7,3.7,4.7,8,5.8,13.1c1.2,5.1,1.7,10.7,1.7,16.9v50.3H-24V446c0-6.4-0.4-11.8-1.3-16.2
	c-0.9-4.4-2.3-8-4.4-10.8c-2-2.8-4.7-4.8-8-6c-3.3-1.2-7.5-1.8-12.5-1.8c-5.3,0-10,0.3-13.8,0.9c-3.9,0.6-6.4,1.1-7.6,1.6v79.1
	h-11.3V405.8z M36.6,400.6c5.9,0,10.9,0.8,15.1,2.5c4.1,1.7,7.5,4,10,7c2.6,3,4.4,6.5,5.6,10.5c1.2,4.1,1.7,8.5,1.7,13.2v56.8
	c-1.2,0.3-2.8,0.7-5,1.1c-2.2,0.4-4.8,0.8-7.7,1.3c-2.9,0.5-6.1,0.8-9.7,1.1c-3.5,0.3-7.2,0.4-10.9,0.4c-4.8,0-9.1-0.5-13.1-1.6
	c-4-1-7.5-2.7-10.5-5c-3-2.3-5.3-5.2-7-8.7c-1.7-3.5-2.5-7.9-2.5-13c0-4.9,0.9-9.1,2.8-12.5c1.9-3.5,4.5-6.4,7.8-8.6
	c3.4-2.3,7.4-3.9,12-5c4.6-1,9.7-1.6,15.1-1.6c1.6,0,3.3,0.1,5.1,0.3c1.8,0.2,3.5,0.4,5.2,0.7c1.7,0.3,3.1,0.6,4.4,0.9
	c1.2,0.3,2.1,0.6,2.5,0.8v-5.6c0-3.1-0.2-6.2-0.7-9.1c-0.5-3-1.5-5.6-3-8c-1.6-2.4-3.8-4.3-6.6-5.7c-2.8-1.5-6.6-2.2-11.2-2.2
	c-6.6,0-11.6,0.5-14.8,1.4c-3.2,0.9-5.6,1.7-7.1,2.3l-1.6-9.9c2-0.9,5-1.8,9.1-2.6C25.9,401,30.8,400.6,36.6,400.6z M37.7,484.5
	c4.4,0,8.3-0.1,11.6-0.4c3.3-0.3,6.1-0.7,8.4-1.1v-31.7c-1.3-0.6-3.3-1.2-6.1-1.8c-2.8-0.6-6.6-1-11.5-1c-2.8,0-5.7,0.2-8.7,0.6
	c-3,0.4-5.8,1.3-8.4,2.6c-2.6,1.3-4.6,3.2-6.3,5.5c-1.6,2.3-2.4,5.4-2.4,9.2c0,3.4,0.5,6.2,1.7,8.5c1.1,2.3,2.7,4.2,4.7,5.6
	c2,1.4,4.5,2.4,7.3,3C30.9,484.2,34.1,484.5,37.7,484.5z M99.9,524.9H88.6V405.8c3.4-1.2,7.7-2.3,12.9-3.3c5.2-1,11.8-1.6,19.9-1.6
	c6.6,0,12.6,1.1,18,3.2c5.4,2.1,10,5.3,13.9,9.3c3.9,4.1,6.9,9,9.1,14.8c2.1,5.8,3.2,12.4,3.2,19.7c0,6.8-0.9,13.1-2.7,18.9
	c-1.8,5.7-4.4,10.7-7.9,14.8c-3.5,4.1-7.8,7.3-12.8,9.7c-5.1,2.3-10.8,3.5-17.3,3.5c-5.9,0-11.1-0.8-15.4-2.5
	c-4.4-1.7-7.5-3.3-9.5-4.8V524.9z M99.9,476.5c1,0.8,2.3,1.7,3.9,2.6c1.6,0.9,3.4,1.8,5.5,2.6c2.1,0.8,4.4,1.5,6.8,2
	c2.4,0.5,5,0.8,7.7,0.8c5.6,0,10.2-1,14-2.9c3.8-1.9,6.8-4.5,9.1-7.8c2.3-3.3,4-7.2,5-11.7c1-4.5,1.6-9.2,1.6-14.2
	c0-11.8-3-20.9-8.9-27.3c-5.9-6.3-13.8-9.5-23.5-9.5c-5.6,0-10.1,0.3-13.5,0.8c-3.4,0.5-6,1.1-7.7,1.7V476.5z M241.8,488.2
	c-1.3,0.8-2.8,1.5-4.5,2.2c-1.7,0.6-3.6,1.2-5.7,1.7c-2,0.5-4.1,0.9-6.3,1.2c-2.2,0.3-4.2,0.4-6,0.4c-13,0-23-3.9-30.1-11.8
	c-7.1-7.8-10.6-19-10.6-33.5c0-7.3,0.9-13.9,2.8-19.7c1.9-5.8,4.5-10.7,7.9-14.8c3.4-4.1,7.6-7.2,12.5-9.3
	c4.9-2.1,10.5-3.2,16.6-3.2c4.9,0,9.1,0.3,12.5,1c3.5,0.7,6.6,1.7,9.2,3.1l-1.7,5.4c-2.3-1.3-5.2-2.3-8.7-3c-3.5-0.7-7.3-1-11.3-1
	c-10.8,0-19.1,3.6-24.9,10.8c-5.8,7.2-8.7,17.4-8.7,30.7c0,13,2.9,22.9,8.8,29.6c5.9,6.7,14.4,10.1,25.7,10.1
	c3.4,0,7.1-0.5,11.1-1.6c4.1-1,7.4-2.3,9.9-3.8L241.8,488.2z M264.6,492.7h-5.9v-84.8c4.2-2.1,8.6-3.7,13.1-4.7
	c4.6-1,9.2-1.6,13.8-1.6c6.7,0,12.1,0.8,16,2.3l-1.2,5.2c-1.7-0.6-3.9-1-6.6-1.4c-2.7-0.3-5.5-0.5-8.5-0.5c-3.5,0-7.1,0.4-10.7,1.1
	c-3.7,0.8-7,1.8-10,3.2V492.7z M371,489.7c-4.3,1.3-9,2.3-14,3c-5.1,0.7-10,1-14.9,1c-11.4,0-20-2.3-25.8-6.9
	c-5.8-4.6-8.7-11.4-8.7-20.5c0-8.7,3-15.3,9.1-19.8c6-4.5,15.1-6.7,27.3-6.7c3.5,0,7.2,0.3,11.1,1c3.9,0.6,7.3,1.4,9.9,2.3v-6.8
	c0-10.4-1.9-18-5.8-22.6c-3.9-4.6-10.6-7-20.1-7c-3.7,0-7.5,0.4-11.4,1.1c-3.9,0.8-7,1.7-9.3,2.9l-0.9-5.6c5.9-2.7,13.5-4,22.6-4
	c10.7,0,18.5,2.8,23.4,8.3c4.9,5.5,7.4,13.4,7.4,23.6V489.7z M365.1,448.4c-2.8-1-5.9-1.9-9.4-2.4c-3.5-0.6-7.3-0.9-11.5-0.9
	c-20.2,0-30.3,7.1-30.3,21.2c0,7.4,2.3,12.9,7,16.5c4.7,3.5,12,5.3,22,5.3c3.5,0,7.2-0.2,11.1-0.6c3.9-0.4,7.6-1.1,11.1-2V448.4z
	 M395.2,492.7h-5.9V391.9c0-11.8,2.5-20.5,7.6-26c5.1-5.5,12.7-8.3,22.9-8.3c3.3,0,6.4,0.3,9.3,1c3,0.6,5.2,1.4,6.9,2.2l-1.4,5.4
	c-2.1-0.9-4.5-1.7-7.2-2.2c-2.7-0.5-5.3-0.8-7.6-0.8c-8.2,0-14.4,2.2-18.5,6.5c-4.1,4.4-6.1,11.9-6.1,22.6v11.1h37.6v5.6h-37.6
	V492.7z M495,489c-2.4,1.3-5.4,2.4-8.9,3.3c-3.5,0.9-6.9,1.4-10.3,1.4c-9.3,0-16.1-2.4-20.5-7.1c-4.4-4.8-6.6-13-6.6-24.7v-86.4
	l5.9-1.4v29.3H491v5.2h-36.4v54.2c0,5,0.5,9.1,1.4,12.5c0.9,3.3,2.3,5.9,4.2,7.8c1.9,1.9,4.1,3.3,6.7,4c2.6,0.8,5.6,1.1,9,1.1
	c3.5,0,6.8-0.5,10-1.4c3.2-0.9,5.7-1.9,7.6-3L495,489z"/>
<path class="st1" d="M171.2,205.8l-182-180.9l182,65.8V205.8z M39.6,337.3l129.8-129.8l-39.6-39.3L39.6,337.3z M173.6,203.3
	l77.1-77.1l-77.1-34.3V203.3z"/>
<g>
	<polygon class="st2" points="286.3,90.7 177,90.7 317.5,153.1 	"/>
</g>
</svg>
